<svg width="25" height="24" viewBox="0 0 25 24" fill="none" xmlns="http://www.w3.org/2000/svg">
<path fill-rule="evenodd" clip-rule="evenodd" d="M22.2 4.74567C21.2939 7.53266 20.3699 10.3245 19.2623 13.0393C18.2723 15.4658 17.1224 17.8285 15.9568 20.1748C15.7577 20.5756 15.5621 20.9695 15.3666 21.2521C15.1796 21.5224 14.7512 22.05 14.0131 21.9962C12.9393 21.9179 12.6287 20.752 12.3527 19.9056C11.9017 18.5225 11.4994 17.1302 10.8522 15.8227C10.4678 15.046 10.3412 14.8056 10.006 14.4717C9.67065 14.1378 9.43016 14.0124 8.65301 13.6315C7.35512 12.9953 5.97389 12.6017 4.60202 12.1596C3.75554 11.8867 2.5851 11.5802 2.50408 10.5069C2.44846 9.77026 2.97581 9.34129 3.24615 9.154C3.54222 8.94888 3.96054 8.74327 4.38099 8.53376C6.30178 7.57655 9.18785 6.1776 11.4563 5.2493C14.1699 4.13884 16.9611 3.21156 19.7474 2.30231C20.5138 2.05222 21.4413 1.73047 22.1053 2.39198C22.7693 3.05349 22.4489 3.98009 22.2 4.74567ZM20.2725 4.22551C19.5798 6.35766 18.4076 9.85619 17.4154 12.2883C16.5255 14.4694 15.1702 17.2774 14.218 19.1942C13.9705 18.4358 13.7076 17.628 13.5063 17.0042C13.2796 16.3019 12.9491 15.5651 12.6401 14.9407C12.2658 14.1844 12.0129 13.6582 11.4143 13.0621C10.8158 12.4662 10.2891 12.2155 9.53192 11.8444C8.9119 11.5405 8.18144 11.2163 7.4844 10.994C6.8653 10.7966 6.06397 10.5389 5.31036 10.2958C7.22649 9.34145 10.0326 7.98359 12.2127 7.09146C14.6435 6.09674 18.1403 4.92087 20.2725 4.22551Z" fill="white"/>
</svg>
